<?xml version="1.0" encoding="iso-8859-1"?>
<!-- Generator: Adobe Illustrator 16.0.0, SVG Export Plug-In . SVG Version: 6.00 Build 0)  -->
<!DOCTYPE svg PUBLIC "-//W3C//DTD SVG 1.1//EN" "http://www.w3.org/Graphics/SVG/1.1/DTD/svg11.dtd">
<svg version="1.1" id="Capa_1" xmlns="http://www.w3.org/2000/svg" xmlns:xlink="http://www.w3.org/1999/xlink" x="0px" y="0px"
	 width="30.835px" height="30.835px" viewBox="0 0 30.835 30.835" style="enable-background:new 0 0 30.835 30.835;"
	 xml:space="preserve">
<g>
	<g>
		<path d="M27.928,27.938L6.13,27.968c-1.686-7.122,0.39-10.839,2.247-12.594c0.514,0.322,1.116,0.518,1.768,0.518
			c0.947,0,1.798-0.398,2.406-1.032l3.649,3.65l0.957-0.958l4.354,4.354l4.627-4.626l-4.354-4.354l0.959-0.957L10.776,0L4.234,6.543
			l3.6,3.599c-0.632,0.608-1.029,1.46-1.029,2.406c0,0.128,0.023,0.249,0.038,0.373c-2.505,2.137-5.479,6.57-3.673,15.019H2.907
			c-0.8,0-1.448,0.647-1.448,1.449c0,0.799,0.648,1.446,1.448,1.446h25.021c0.8,0,1.448-0.647,1.448-1.446
			C29.376,28.587,28.728,27.938,27.928,27.938z M21.512,19.175l-2.986-2.985l1.896-1.897l2.985,2.989L21.512,19.175z M6.964,6.543
			l3.812-3.813l9.236,9.237L16.2,15.78l-2.76-2.76c0.022-0.155,0.048-0.311,0.048-0.472c0-1.846-1.497-3.342-3.344-3.342
			c-0.161,0-0.314,0.025-0.47,0.047L6.964,6.543z"/>
		<rect x="20.123" y="23.145" width="7.805" height="3.619"/>
	</g>
</g>
<g>
</g>
<g>
</g>
<g>
</g>
<g>
</g>
<g>
</g>
<g>
</g>
<g>
</g>
<g>
</g>
<g>
</g>
<g>
</g>
<g>
</g>
<g>
</g>
<g>
</g>
<g>
</g>
<g>
</g>
</svg>
